<svg xmlns="http://www.w3.org/2000/svg" width="169" height="40.674" viewBox="0 0 169 40.674">
  <g id="logo" transform="translate(-33 -23.936)">
    <path id="Path_1" data-name="Path 1" d="M89.2,32.909V43.546l4.633-5.392h6.941l-5.7,5.674,5.7,9.769H94.415l-3.1-6.051L89.2,49.658V53.6H83.436V35.919Z" transform="translate(-21.581 -8.802)" fill="#404040"/>
    <path id="Path_2" data-name="Path 2" d="M43.174,47.592a2.14,2.14,0,0,1-1.278.313H39.04V45.59H42.1q1.491,0,1.491,1.212a.951.951,0,0,1-.42.791M41.98,54.047H39.04V51.256h3a2.706,2.706,0,0,1,1.435.313,1.13,1.13,0,0,1,.5,1.035q0,1.443-1.988,1.443m5.3-10.963a10.388,10.388,0,0,0-5.093-.98H33.642v15.43h8.517q7.288,0,7.288-4.412a3.391,3.391,0,0,0-.9-2.431,4.059,4.059,0,0,0-2.583-1.138v-.108a3.662,3.662,0,0,0,2.2-1.117,3.2,3.2,0,0,0,.8-2.234,3.249,3.249,0,0,0-1.684-3.01" transform="translate(-0.27 -12.737)" fill="#404040"/>
    <path id="Path_3" data-name="Path 3" d="M117.476,42.1v15.43h5.4V51.623h4.279v5.911h5.4V42.1h-5.4V47.66h-4.279V42.1Z" transform="translate(-36.15 -12.737)" fill="#404040"/>
    <path id="Path_4" data-name="Path 4" d="M153.153,52.7q0-1.809,2.621-1.9L157,50.749v1.178a1.992,1.992,0,0,1-.687,1.568,2.413,2.413,0,0,1-1.649.6q-1.508,0-1.508-1.393m9.127,4.823V47.573a5.141,5.141,0,0,0-1.623-4.046,6.657,6.657,0,0,0-4.584-1.447,14.931,14.931,0,0,0-6.79,1.366l1.534,3.457a11.34,11.34,0,0,1,4.278-1.125,1.657,1.657,0,0,1,1.874,1.876v.214l-2.567.08a9.452,9.452,0,0,0-4.956,1.333,4.093,4.093,0,0,0-1.712,3.611,4.977,4.977,0,0,0,1.249,3.617,4.552,4.552,0,0,0,3.422,1.286,7.323,7.323,0,0,0,2.879-.482,6.053,6.053,0,0,0,2.187-1.8h.108l1.018,2.009Z" transform="translate(-49.101 -12.727)" fill="#404040"/>
    <rect id="Rectangle_1" data-name="Rectangle 1" width="5.397" height="15.43" transform="translate(52.339 29.367)" fill="#2fa442"/>
    <path id="Path_5" data-name="Path 5" d="M69.4,37.163q2.747,0,2.747-2.231a2.11,2.11,0,0,0-.658-1.686,4.13,4.13,0,0,0-4.166-.013,2.125,2.125,0,0,0-.645,1.7q0,2.232,2.722,2.231" transform="translate(-14.408 -8.702)" fill="#2fa442"/>
    <path id="Path_6" data-name="Path 6" d="M257.708,51.48s.364-4.265-1.488-6.566c-1.739-2.163-4.042-2.777-7.1-2.777-3.425,0-7.6,2.187-8.108,6.144-.549,4.295,1.092,8.586,5.693,9.4a14.449,14.449,0,0,0,2.727.169V54.509s-2.583.194-2.866-3.03ZM252.1,48.674h-5.527s-.029-3.17,2.764-3.17,2.763,3.17,2.763,3.17" transform="translate(-88.981 -12.751)" fill="#2fa442"/>
    <path id="Path_7" data-name="Path 7" d="M198.606,48.675h-5.244s.362,5.106,7.632,5.106,7.492-4.023,7.492-5.272-1.056-4.882-6.3-4.882c-3.912,0-3.58-1.582-3.58-1.582s.168-.97,1.776-.97,2.333.97,2.333,1.5h8.515v6.435s-.3,4.743,3.776,4.743,4.908-.387,4.908-.387l-.36-3.913s-2.831,1.414-2.831-.971V42.6H219.8V38.063H216.78V32.61L211.2,35.581v2.467H200.715s-7.075-.277-7.075,4.579c0,4.492,5.762,4.809,6.879,4.939,1.584.145,2.8.563,2.8,1.664,0,1.387-2.192,1.332-2.192,1.332s-2.526,0-2.526-1.888" transform="translate(-68.629 -8.674)" fill="#404040"/>
    <path id="Path_8" data-name="Path 8" d="M316.049,49.848c0-4.591-3.3-7.768-8.23-7.768s-8.336,2.878-8.336,7.957c0,4.918,3.713,7.8,8.173,7.8s8.394-2.229,8.394-7.986m-5.57.109c0,2.689-1.355,4.019-2.714,4.019s-2.8-1.33-2.8-4.019c0-2.308,1.19-3.954,2.769-3.954s2.742,1.59,2.742,3.954" transform="translate(-114.049 -12.727)" fill="#2fa442"/>
    <path id="Path_9" data-name="Path 9" d="M283.373,43.719l5.515-5.632h-6.767L277.6,43.262V32.676l-5.715,3.108V53.5h5.66V49.519l2.138-2.137,2.994,6.117h6.212Z" transform="translate(-102.236 -8.702)" fill="#2fa442"/>
    <text id="ІДЕАЛЬНО_ТЕПЛО" data-name="ІДЕАЛЬНО &amp; ТЕПЛО" transform="translate(33 62.61)" fill="#484848" font-size="8" font-family="Montserrat-Medium, Montserrat" font-weight="500" letter-spacing="0.65em"><tspan x="0" y="0">ІДЕАЛЬНО</tspan><tspan y="0" fill="#fff"> </tspan><tspan y="0" fill="#25a53f">&amp;</tspan><tspan y="0" fill="#fff"> </tspan><tspan y="0">ТЕПЛО</tspan></text>
  </g>
</svg>
